<mxfile host="app.diagrams.net" modified="2021-05-30T14:46:17.490Z" agent="5.0 (X11; Linux x86_64) AppleWebKit/537.36 (KHTML, like Gecko) Chrome/91.0.4472.77 Safari/537.36" etag="qu0YLysSwUuqF-CVXkyi" version="14.7.3" type="github">
  <diagram id="igwtaQ051zRgFGKd1Ymw" name="Page-1">
    <mxGraphModel dx="2503" dy="1283" grid="1" gridSize="10" guides="1" tooltips="1" connect="1" arrows="1" fold="1" page="1" pageScale="1" pageWidth="1250" pageHeight="625" math="0" shadow="0">
      <root>
        <mxCell id="0" />
        <mxCell id="1" parent="0" />
      </root>
    </mxGraphModel>
  </diagram>
</mxfile>
